<?xml version="1.0" standalone="no"?>
<!DOCTYPE svg PUBLIC "-//W3C//DTD SVG 20010904//EN"
 "http://www.w3.org/TR/2001/REC-SVG-20010904/DTD/svg10.dtd">
<svg version="1.0" xmlns="http://www.w3.org/2000/svg"
 width="493.000000pt" height="493.000000pt" viewBox="0 0 493.000000 493.000000"
 preserveAspectRatio="xMidYMid meet">
<metadata>
Created by potrace 1.14, written by Peter Selinger 2001-2017
</metadata>
<g transform="translate(0.000000,493.000000) scale(0.100000,-0.100000)"
fill="#000000" stroke="none">
<path d="M845 2981 c-76 -23 -114 -103 -78 -164 17 -29 59 -73 87 -91 40 -25
113 -23 152 4 39 28 53 60 48 107 -9 92 -123 170 -209 144z"/>
<path d="M3738 2940 c-107 -19 -204 -86 -244 -167 -28 -57 -26 -184 4 -241 24
-44 113 -142 130 -142 5 0 17 -9 27 -20 10 -11 22 -17 26 -14 5 3 9 0 9 -5 0
-6 8 -11 19 -11 10 0 24 -7 31 -15 7 -8 16 -13 20 -10 5 3 11 1 15 -5 4 -6 11
-8 16 -5 5 4 12 -1 15 -9 3 -9 10 -14 14 -11 4 3 23 -6 41 -18 25 -16 35 -31
37 -54 6 -57 -56 -91 -158 -88 -75 3 -125 18 -194 60 -33 19 -62 33 -65 29 -7
-7 -11 -192 -4 -216 2 -10 11 -18 19 -18 8 0 14 -7 14 -15 0 -15 56 -44 95
-50 11 -2 38 -7 60 -12 22 -5 55 -9 73 -8 17 0 32 -3 32 -8 0 -4 6 -5 12 -1
18 11 48 12 48 2 0 -5 5 -6 11 -2 6 3 28 8 48 11 58 6 175 45 193 64 10 9 25
23 35 31 21 15 62 87 69 120 2 13 5 51 5 84 1 136 -88 238 -291 335 -69 34
-128 66 -132 72 -16 26 6 83 35 92 12 4 29 9 37 12 32 11 127 9 170 -2 38 -10
94 -32 133 -52 4 -2 7 48 7 111 0 64 -3 115 -7 115 -20 -3 -31 3 -35 19 -4 12
-22 23 -49 31 -56 15 -259 23 -321 11z"/>
<path d="M1183 2927 c-5 -8 -8 -853 -4 -954 1 -16 7 -23 20 -23 11 0 21 -9 24
-22 l6 -23 208 2 c114 1 208 2 208 3 0 2 59 10 93 12 6 1 12 5 12 10 0 4 11 8
24 8 14 0 28 5 31 10 4 6 11 8 16 5 5 -4 9 -3 9 2 0 4 15 14 33 22 17 8 34 17
37 20 3 3 22 21 43 39 21 17 34 32 30 32 -4 0 2 7 13 15 20 13 56 76 54 91 -1
4 4 10 11 15 7 4 14 15 15 24 1 9 6 24 9 33 26 62 24 275 -3 342 -5 14 -10 29
-10 33 -2 25 -53 105 -92 145 -83 87 -162 130 -281 153 -77 14 -498 19 -506 6z
m403 -238 c8 -7 15 -6 19 1 5 8 11 8 21 -1 8 -6 14 -9 14 -6 0 4 19 -1 42 -9
47 -16 96 -65 104 -104 3 -14 9 -36 13 -50 10 -33 6 -125 -8 -175 -23 -88 -95
-162 -177 -184 -44 -12 -133 -21 -149 -15 -11 5 -13 154 -2 171 4 7 4 14 0 16
-6 4 -9 358 -4 363 7 6 119 0 127 -7z"/>
<path d="M2202 2926 c-4 -7 -7 -846 -3 -953 1 -16 7 -23 21 -23 11 0 19 -3 18
-7 0 -5 2 -15 6 -23 5 -12 26 -15 99 -14 51 0 97 3 103 6 6 4 9 115 9 297 0
160 3 285 7 278 4 -8 35 -92 69 -188 33 -96 75 -213 92 -261 21 -59 37 -88 49
-91 10 -3 18 -13 18 -22 0 -9 5 -13 10 -10 6 3 10 2 10 -2 0 -6 140 -10 170
-4 6 1 30 54 34 74 2 6 9 26 16 42 7 17 12 36 11 43 -1 6 2 12 6 12 5 0 10 12
11 27 1 15 5 29 10 32 4 3 8 14 10 25 2 10 8 30 13 45 6 14 9 26 8 26 -1 0 3
10 10 23 7 13 14 31 16 40 5 27 47 146 54 154 3 4 6 -106 6 -245 l0 -251 23
-6 c13 -3 23 -8 23 -12 -3 -32 0 -33 109 -32 60 0 112 3 115 6 8 8 11 108 3
108 -4 0 -5 6 -3 13 9 23 11 117 2 117 -4 0 -6 4 -3 9 6 9 11 128 6 146 -1 6
-1 15 0 20 4 24 1 115 -5 125 -3 5 -2 10 4 10 6 0 6 11 1 30 -5 17 -6 30 -2
30 4 0 7 25 7 55 0 30 -2 55 -5 55 -3 0 -4 21 -3 47 1 27 2 48 3 48 1 0 2 15
3 33 1 17 -1 32 -5 32 -4 0 -4 10 0 23 11 30 0 82 -17 82 -8 0 -17 9 -21 20
-7 19 -16 20 -168 20 -89 0 -162 0 -162 -1 0 -1 -200 -588 -206 -604 -4 -10
-11 -1 -20 25 -8 22 -17 47 -21 55 -3 8 -7 20 -8 25 -2 6 -4 17 -6 25 -2 8 -6
17 -9 20 -4 4 -53 144 -56 160 0 3 -4 13 -7 23 -4 9 -10 25 -14 35 -3 9 -7 20
-8 25 -2 4 -4 9 -5 12 -1 3 -3 8 -4 13 -14 58 -56 155 -65 147 -3 -3 -10 5
-17 17 -12 22 -16 23 -174 23 -90 0 -164 -4 -168 -9z"/>
<path d="M769 2648 c-3 -43 -4 -666 0 -680 2 -10 12 -18 23 -18 10 0 17 -4 13
-9 -3 -5 -1 -12 5 -16 6 -4 8 -9 6 -13 -2 -4 46 -7 107 -6 l112 1 1 25 c1 14
4 30 8 36 3 6 2 13 -4 17 -6 4 -7 12 -1 22 5 9 5 29 1 45 -5 15 -5 30 -2 32 6
3 7 161 2 161 -1 0 -2 17 -3 38 -1 20 0 37 3 37 7 0 4 99 -3 106 -3 4 -2 17 3
30 5 13 6 26 0 29 -5 3 -5 18 0 35 5 18 5 30 0 30 -6 0 -6 10 -1 23 11 27 1
49 -20 45 -8 -2 -15 7 -17 20 -3 21 -7 22 -118 22 -84 0 -114 -3 -115 -12z"/>
</g>
</svg>
